<?xml version="1.0" encoding="utf-8" ?>
<!DOCTYPE svg PUBLIC "-//W3C//DTD SVG 1.1//EN" "http://www.w3.org/Graphics/SVG/1.1/DTD/svg11.dtd">
<svg height="612" version="1.1" width="1136" xmlns="http://www.w3.org/2000/svg">
<rect fill="#ffffff" height="136" stroke="#ffffff" stroke-width="1" width="196" x="438" y="14"/>
<rect fill="none" height="136" stroke="#000000" stroke-width="1" width="196" x="438" y="14"/>
<text font-family="Dialog" font-size="12" font-style="italic" x="480" y="27">
abstract FOLNode</text>
<rect fill="#000000" height="1" stroke="#000000" stroke-width="1" width="196" x="438" y="37"/>
<text font-family="Dialog" font-size="12" x="442" y="51">
protected String name</text>
<text font-family="Dialog" font-size="12" x="442" y="67">
protected Integer symNumber</text>
<rect fill="#000000" height="1" stroke="#000000" stroke-width="1" width="196" x="438" y="77"/>
<text font-family="Dialog" font-size="12" x="442" y="91">
public String getName()</text>
<text font-family="Dialog" font-size="12" x="442" y="107">
public Integer nSymbols()</text>
<text font-family="Dialog" font-size="12" x="442" y="123">
public String toString()</text>
<text font-family="Dialog" font-size="12" x="442" y="139">
public Boolean equals( o)</text>
<rect fill="#ffffff" height="83" stroke="#ffffff" stroke-width="1" width="184" x="174" y="166"/>
<rect fill="none" height="83" stroke="#000000" stroke-width="1" width="184" x="174" y="166"/>
<text font-family="Dialog" font-size="12" x="228" y="198">
FOLNodeArg</text>
<text font-family="Dialog" font-size="12" x="218" y="180">
&lt;&lt;interface&gt;&gt;</text>
<rect fill="#000000" height="1" stroke="#000000" stroke-width="1" width="184" x="174" y="208"/>
<text font-family="Dialog" font-size="12" x="178" y="222">
public List&lt;Term&gt; getArgs()</text>
<text font-family="Dialog" font-size="12" x="178" y="238">
public Integer nArgs()</text>
<rect fill="#ffffff" height="69" stroke="#ffffff" stroke-width="1" width="337" x="582" y="182"/>
<rect fill="none" height="69" stroke="#000000" stroke-width="1" width="337" x="582" y="182"/>
<text font-family="Dialog" font-size="12" font-style="italic" x="707" y="195">
abstract Term</text>
<rect fill="#000000" height="1" stroke="#000000" stroke-width="1" width="337" x="582" y="205"/>
<rect fill="#000000" height="1" stroke="#000000" stroke-width="1" width="337" x="582" y="226"/>
<text font-family="Dialog" font-size="12" x="586" y="240">
public Term clone(Map&lt;Variable varMap,  Variable&gt;)</text>
<polyline fill="none" points="633,182 633,150" stroke="#000000" stroke-width="1"/>
<polygon fill="#ffffff" points="633,150 640,162 626,162" stroke="#ffffff" stroke-width="1"/>
<polygon fill="none" points="633,150 640,162 626,162" stroke="#000000" stroke-width="1"/>
<rect fill="#ffffff" height="144" stroke="#ffffff" stroke-width="1" width="440" x="14" y="398"/>
<rect fill="none" height="144" stroke="#000000" stroke-width="1" width="440" x="14" y="398"/>
<text font-family="Dialog" font-size="12" x="215" y="411">
Literal</text>
<rect fill="#000000" height="1" stroke="#000000" stroke-width="1" width="440" x="14" y="421"/>
<text font-family="Dialog" font-size="12" x="18" y="435">
private Boolean sign</text>
<text font-family="Dialog" font-size="12" x="18" y="451">
private List&lt;Term&gt; args</text>
<rect fill="#000000" height="1" stroke="#000000" stroke-width="1" width="440" x="14" y="465"/>
<text font-family="Dialog" font-size="12" x="18" y="479">
public Literal(String name, Boolean sign, List&lt;Term&gt; args)</text>
<text font-family="Dialog" font-size="12" x="18" y="495">
public Boolean sign()</text>
<text font-family="Dialog" font-size="12" x="18" y="511">
public Boolean isOpposite(Literal lit)</text>
<text font-family="Dialog" font-size="12" x="18" y="527">
public Literal clone(Map&lt;Variable varMap,  Variable&gt;)</text>
<line fill="#000000" stroke="#000000" stroke-width="1" x1="257" x2="257" y1="398" y2="393"/>
<line fill="#000000" stroke="#000000" stroke-width="1" x1="257" x2="257" y1="388" y2="383"/>
<line fill="#000000" stroke="#000000" stroke-width="1" x1="257" x2="257" y1="378" y2="373"/>
<line fill="#000000" stroke="#000000" stroke-width="1" x1="257" x2="257" y1="368" y2="363"/>
<line fill="#000000" stroke="#000000" stroke-width="1" x1="257" x2="257" y1="358" y2="353"/>
<line fill="#000000" stroke="#000000" stroke-width="1" x1="257" x2="257" y1="348" y2="343"/>
<line fill="#000000" stroke="#000000" stroke-width="1" x1="257" x2="257" y1="338" y2="333"/>
<line fill="#000000" stroke="#000000" stroke-width="1" x1="257" x2="257" y1="328" y2="323"/>
<line fill="#000000" stroke="#000000" stroke-width="1" x1="257" x2="257" y1="318" y2="313"/>
<line fill="#000000" stroke="#000000" stroke-width="1" x1="257" x2="257" y1="308" y2="303"/>
<line fill="#000000" stroke="#000000" stroke-width="1" x1="257" x2="257" y1="298" y2="293"/>
<line fill="#000000" stroke="#000000" stroke-width="1" x1="257" x2="257" y1="288" y2="283"/>
<line fill="#000000" stroke="#000000" stroke-width="1" x1="257" x2="257" y1="278" y2="273"/>
<line fill="#000000" stroke="#000000" stroke-width="1" x1="257" x2="257" y1="268" y2="263"/>
<line fill="#000000" stroke="#000000" stroke-width="1" x1="257" x2="257" y1="258" y2="253"/>
<polygon fill="#ffffff" points="257,249 264,261 250,261" stroke="#ffffff" stroke-width="1"/>
<polygon fill="none" points="257,249 264,261 250,261" stroke="#000000" stroke-width="1"/>
<text font-family="Dialog" font-size="12" x="170" y="336">
&lt;&lt;realize&gt;&gt;</text>
<polyline fill="none" points="438,398 438,150" stroke="#000000" stroke-width="1"/>
<polygon fill="#ffffff" points="438,150 445,162 431,162" stroke="#ffffff" stroke-width="1"/>
<polygon fill="none" points="438,150 445,162 431,162" stroke="#000000" stroke-width="1"/>
<text font-family="Dialog" font-size="12" x="443" y="236">
&lt;&lt;implementation&gt;&gt;</text>
<rect fill="#ffffff" height="88" stroke="#ffffff" stroke-width="1" width="357" x="478" y="398"/>
<rect fill="none" height="88" stroke="#000000" stroke-width="1" width="357" x="478" y="398"/>
<text font-family="Dialog" font-size="12" x="629" y="411">
Function</text>
<rect fill="#000000" height="1" stroke="#000000" stroke-width="1" width="357" x="478" y="421"/>
<text font-family="Dialog" font-size="12" x="482" y="435">
private List&lt;Term&gt; args</text>
<rect fill="#000000" height="1" stroke="#000000" stroke-width="1" width="357" x="478" y="453"/>
<text font-family="Dialog" font-size="12" x="482" y="467">
public Function(String name, List&lt;Term&gt; args)</text>
<polyline fill="none" points="630,398 630,251" stroke="#000000" stroke-width="1"/>
<polygon fill="#ffffff" points="630,251 637,263 623,263" stroke="#ffffff" stroke-width="1"/>
<polygon fill="none" points="630,251 637,263 623,263" stroke="#000000" stroke-width="1"/>
<text font-family="Dialog" font-size="12" x="458" y="332">
&lt;&lt;implementation&gt;&gt;</text>
<line fill="#000000" stroke="#000000" stroke-width="1" x1="478" x2="475" y1="398" y2="395"/>
<line fill="#000000" stroke="#000000" stroke-width="1" x1="472" x2="469" y1="391" y2="387"/>
<line fill="#000000" stroke="#000000" stroke-width="1" x1="466" x2="463" y1="383" y2="379"/>
<line fill="#000000" stroke="#000000" stroke-width="1" x1="460" x2="457" y1="375" y2="371"/>
<line fill="#000000" stroke="#000000" stroke-width="1" x1="453" x2="450" y1="367" y2="363"/>
<line fill="#000000" stroke="#000000" stroke-width="1" x1="447" x2="444" y1="359" y2="356"/>
<line fill="#000000" stroke="#000000" stroke-width="1" x1="441" x2="438" y1="352" y2="348"/>
<line fill="#000000" stroke="#000000" stroke-width="1" x1="435" x2="431" y1="344" y2="340"/>
<line fill="#000000" stroke="#000000" stroke-width="1" x1="428" x2="425" y1="336" y2="332"/>
<line fill="#000000" stroke="#000000" stroke-width="1" x1="422" x2="419" y1="328" y2="324"/>
<line fill="#000000" stroke="#000000" stroke-width="1" x1="416" x2="413" y1="320" y2="317"/>
<line fill="#000000" stroke="#000000" stroke-width="1" x1="409" x2="406" y1="313" y2="309"/>
<line fill="#000000" stroke="#000000" stroke-width="1" x1="403" x2="400" y1="305" y2="301"/>
<line fill="#000000" stroke="#000000" stroke-width="1" x1="397" x2="394" y1="297" y2="293"/>
<line fill="#000000" stroke="#000000" stroke-width="1" x1="391" x2="387" y1="289" y2="285"/>
<line fill="#000000" stroke="#000000" stroke-width="1" x1="384" x2="381" y1="281" y2="278"/>
<line fill="#000000" stroke="#000000" stroke-width="1" x1="378" x2="375" y1="274" y2="270"/>
<line fill="#000000" stroke="#000000" stroke-width="1" x1="372" x2="369" y1="266" y2="262"/>
<line fill="#000000" stroke="#000000" stroke-width="1" x1="365" x2="362" y1="258" y2="254"/>
<line fill="#000000" stroke="#000000" stroke-width="1" x1="359" x2="358" y1="250" y2="249"/>
<polygon fill="#ffffff" points="358,249 370,253 360,262" stroke="#ffffff" stroke-width="1"/>
<polygon fill="none" points="358,249 370,253 360,262" stroke="#000000" stroke-width="1"/>
<text font-family="Dialog" font-size="12" x="315" y="322">
&lt;&lt;realize&gt;&gt;</text>
<rect fill="#ffffff" height="72" stroke="#ffffff" stroke-width="1" width="238" x="782" y="526"/>
<rect fill="none" height="72" stroke="#000000" stroke-width="1" width="238" x="782" y="526"/>
<text font-family="Dialog" font-size="12" x="875" y="539">
Variable</text>
<rect fill="#000000" height="1" stroke="#000000" stroke-width="1" width="238" x="782" y="549"/>
<rect fill="#000000" height="1" stroke="#000000" stroke-width="1" width="238" x="782" y="571"/>
<text font-family="Dialog" font-size="12" x="786" y="585">
public Variable(String name)</text>
<polyline fill="none" points="846,526 846,251" stroke="#000000" stroke-width="1"/>
<polygon fill="#ffffff" points="846,251 853,263 839,263" stroke="#ffffff" stroke-width="1"/>
<polygon fill="none" points="846,251 853,263 839,263" stroke="#000000" stroke-width="1"/>
<text font-family="Dialog" font-size="12" x="832" y="500">
&lt;&lt;implementation&gt;&gt;</text>
<rect fill="#ffffff" height="69" stroke="#ffffff" stroke-width="1" width="244" x="878" y="342"/>
<rect fill="none" height="69" stroke="#000000" stroke-width="1" width="244" x="878" y="342"/>
<text font-family="Dialog" font-size="12" x="971" y="355">
Constant</text>
<rect fill="#000000" height="1" stroke="#000000" stroke-width="1" width="244" x="878" y="365"/>
<rect fill="#000000" height="1" stroke="#000000" stroke-width="1" width="244" x="878" y="386"/>
<text font-family="Dialog" font-size="12" x="882" y="400">
public Constant(String name)</text>
<polyline fill="none" points="886,342 886,251" stroke="#000000" stroke-width="1"/>
<polygon fill="#ffffff" points="886,251 893,263 879,263" stroke="#ffffff" stroke-width="1"/>
<polygon fill="none" points="886,251 893,263 879,263" stroke="#000000" stroke-width="1"/>
<text font-family="Dialog" font-size="12" x="891" y="298">
&lt;&lt;implementation&gt;&gt;</text>
</svg>
